<svg class="icon" viewBox="0 0 1024 1024" version="1.1" xmlns="http://www.w3.org/2000/svg" p-id="2505" height="128" width="128"><path d="M240.40072 528.507976l-43.414789-43.415812c40.912805-40.912805 88.555895-73.036433 141.604088-95.479585 54.940286-23.243377 113.283066-35.028794 173.404352-35.028794 60.137659 0 118.487601 11.785417 173.430958 35.028794 53.05945 22.446221 100.695377 54.57292 141.584646 95.486748l-43.428092 43.402509c-72.51557-72.559573-168.967296-112.51968-271.587512-112.51968C409.419182 415.982156 312.964386 455.94431 240.40072 528.507976zM350.225011 638.304637l-43.420929-43.410696c54.812373-54.825676 127.684054-85.019349 205.190289-85.019349 77.533864 0 150.407592 30.195719 205.196429 85.024465l-43.430138 43.399439c-43.191708-43.221384-100.641141-67.025533-161.76629-67.025533C450.890712 571.272965 393.439232 595.07916 350.225011 638.304637zM411.24783 699.321316 511.994372 800.054555l100.770078-100.733239c-25.824155-25.77606-61.434188-41.710984-100.770078-41.710984C472.661551 657.610332 437.048449 673.544233 411.24783 699.321316zM131.472845 419.537122l-43.412742-43.417859c55.05592-55.048757 119.173217-98.272187 190.57236-128.469953 73.933873-31.269168 152.448064-47.124274 233.361909-47.124274 80.924077 0 159.445432 15.854083 233.383398 47.122227 71.397097 30.194696 135.51644 73.415057 190.573383 128.460744l-43.410696 43.419905c-49.437969-49.427736-106.997919-88.230484-171.0794-115.330702-66.328661-28.05087-136.803759-42.273802-209.467709-42.273802-72.652693 0-143.120628 14.222933-209.445196 42.274826C238.467695 331.300498 180.909791 370.106316 131.472845 419.537122z" p-id="2506"></path></svg>