<svg t="1557461059539" class="icon" viewBox="0 0 1024 1024" version="1.1" xmlns="http://www.w3.org/2000/svg" p-id="2094" height="64" width="64"><path d="M423.3216 32.5632C520.8064-12.288 643.9936 13.5168 716.8 91.7504c62.5664 66.2528 86.1184 166.7072 58.88 253.7472-25.1904 82.5344-94.4128 150.016-177.7664 172.9536-37.4784 13.5168-77.824 7.168-116.5312 12.0832C357.888 542.72 241.2544 609.0752 166.0928 707.584c-59.392 78.7456-93.4912 176.9472-91.648 275.7632-0.1024 25.3952-36.9664 41.472-53.9648 20.48-15.7696-12.6976-8.0896-34.5088-9.216-51.8144 8.3968-213.9136 166.4-410.4192 372.3264-467.2512-60.5184-44.3392-105.8816-111.3088-112.64-187.2896-14.6432-109.1584 51.4048-221.9008 152.3712-264.9088m50.0736 50.7904c-48.64 14.0288-91.3408 47.3088-115.4048 92.0576-49.4592 83.6608-20.3776 202.4448 61.6448 254.2592 60.6208 42.496 146.3296 44.544 208.7936 4.608 53.3504-30.0032 87.552-88.4736 93.3888-148.7872 4.4032-60.5184-20.6848-122.88-66.56-162.816-48.9472-42.5984-119.808-58.0608-181.8624-39.3216zM731.648 537.6c11.8784-11.6736 30.4128-13.6192 43.1104-1.8432 71.5776 51.3024 141.4144 105.0624 212.7872 156.7744 10.3424 9.1136 27.0336 17.92 25.4976 34.0992 0.4096 85.7088 0.4096 171.4176 0 257.1264 0.1024 19.6608-21.9136 32.1536-39.936 29.4912-147.2512 0-294.4 0.1024-441.6512-0.1024-17.5104 1.536-36.4544-12.3904-35.4304-31.1296-0.6144-78.4384 0.4096-156.8768-0.3072-235.3152 0.3072-14.848-2.2528-34.0992 12.5952-43.3152 74.1376-55.6032 148.7872-110.6944 223.3344-165.7856M560.128 745.984c0.4096 67.3792 0.512 134.8608-0.1024 202.3424 54.4768 0.2048 108.9536 0.6144 163.328-0.3072-0.8192-45.8752-2.048-91.7504-0.2048-137.5232 7.2704-30.8224 55.3984-31.1296 62.976 0 2.1504 45.8752 0.2048 91.9552 0.512 137.8304 54.3744 0.1024 108.7488 0.7168 163.1232-0.4096-3.6864-67.6864 3.2768-137.3184-3.2768-203.9808-63.3856-48.64-128.2048-95.5392-192.2048-143.2576-64.1024 49.2544-129.8432 96.3584-194.1504 145.3056z" p-id="2095"></path></svg>