<svg t="1557461088855" class="icon" viewBox="0 0 1057 1024" version="1.1" xmlns="http://www.w3.org/2000/svg" p-id="2219" height="64" width="64"><path d="M840.200904 339.829755H562.328245c-14.121626 0-25.614377 11.492752-25.614377 25.605168 0 14.130835 11.492752 25.623587 25.614377 25.623587h277.872659c14.121626 0 25.605168-11.492752 25.605167-25.623587 0-14.112416-11.483542-25.605168-25.605167-25.605168z" fill="#515151" p-id="2220"></path><path d="M523.745509 746.262418c-0.535189-4.704139-1.01512-8.928347-1.429559-12.120039l-0.544399-4.11369-410.888138 0.018419c-24.766057-2.564405-44.162826-24.14798-44.162826-49.087998V158.178579c0-26.41665 21.648043-47.096644 49.282427-47.096645h790.387381c28.418236 0 51.541887 21.122063 51.541887 47.096645v326.721203l1.826601 1.401929c5.626137 4.353145 13.383822 8.744151 21.601994 13.374612 11.732206 6.622838 23.861454 13.46671 30.031991 20.38426l8.245801 9.224082V124.253932c0-41.802058-51.40374-74.232678-95.621824-74.232678H82.161255c-43.443441 0-77.147054 48.202838-77.147055 89.672322v559.065945c0 39.34817 30.198789 88.233554 69.629847 92.328825h456.471313l-1.632174-5.977131c-2.297322-8.373715-4.2897-25.990954-5.737677-38.848797z" fill="#515151" p-id="2221"></path><path d="M280.507672 498.108618c-3.541663 3.892657-8.891508 8.061606-15.910365 12.414751-9.140171 5.718235-19.720134 10.146081-31.452339 13.152555-12.387122 3.210112-24.52558 6.880711-36.09201 10.957562-11.824303 4.187369-22.413476 9.943466-31.489178 17.155729-9.583263 7.618515-15.431457 18.706037-17.359367 32.855292-3.569292 23.317055-4.362354 42.61354-2.369977 57.390082 2.167363 16.270569 5.230118 25.217335 9.82374 28.888957 1.87265 1.586125 5.54325 3.745301 17.359366 6.290263 8.061606 1.771343 17.847483 3.523243 29.912264 5.349845 11.722996 1.771343 24.709775 3.431146 39.053457 5.054109a1718.272323 1718.272323 0 0 0 43.250037 4.242628c14.471596 1.199315 28.556383 2.231831 42.170448 2.914376 13.46671 0.700965 25.559119 1.070378 35.944654 1.070378 10.376325 0 22.63451-0.369414 36.443003-1.070378 13.96506-0.682545 28.556383-1.716084 43.803646-2.914376a1182.76391 1182.76391 0 0 0 45.334511-4.538363 655.405107 655.405107 0 0 0 24.12035-3.228531l4.012384-0.608868v-155.399279l-3.375887-0.995677a258.610966 258.610966 0 0 0-8.199753-2.323928c-10.007935-2.711761-19.545148-5.866614-28.344558-9.353019-9.233292-3.63376-16.482393-7.78429-21.528316-12.341073-5.008061-4.519943-8.734942-9.260921-11.086499-14.112415-2.369977-4.925173-3.717671-9.851369-4.021594-14.702864-0.341784-4.925173-0.01842-9.925047 1.004887-15.052834 1.208525-7.636934 3.532453-13.005198 6.90834-15.975856 4.178159-3.65218 9.601682-8.098445 16.381086-13.46671 3.228531-2.840698 6.161327-6.770194 8.753361-11.658527a131.556245 131.556245 0 0 0 6.345522-14.186094 446.432679 446.432679 0 0 0 4.685719-14.776542c3.27458-1.346671 6.40078-3.320629 9.30697-5.903453 3.26537-2.859118 6.216585-6.807033 8.734941-11.695367 2.573615-4.869914 4.214998-11.234879 4.998851-19.295461 0.783853-6.253424 0.673335-11.455913-0.340761-15.901155-0.995677-4.334725-2.323928-7.969509-3.837398-10.644432-1.36509-2.693342-3.145643-5.01727-5.313006-6.954388a348.998579 348.998579 0 0 0-2.674922-41.24845c-1.835811-12.673647-4.915963-25.991977-9.140171-39.606043-4.427846-14.112416-11.483542-27.191292-20.919449-38.757722-4.104481-5.294586-9.69378-10.440793-17.08205-15.73538-7.158027-5.14723-15.357779-9.758248-24.359804-13.706163-8.863878-3.929496-18.678408-7.139607-29.16525-9.555633-18.364253-4.224208-36.912701-4.575202-57.251936-1.659803-9.075703 1.309832-18.161638 3.818979-26.988677 7.452739-8.983605 3.65218-17.884322 8.744151-26.444279 15.126512-8.679683 6.457062-16.612353 14.942317-23.465434 25.088398-7.636934 10.515494-13.494339 22.74605-17.405416 36.378536-3.809769 13.558807-6.354731 25.715685-7.76587 37.116339a258.632455 258.632455 0 0 0-2.213412 39.108716c-2.951215 3.578502-5.14723 7.323802-6.484691 11.06808-1.576915 3.929496-2.665713 8.615215-3.228531 13.96506-0.590448 5.644557 0.303922 11.842723 2.545986 18.189267 1.90028 6.493901 4.307096 11.658528 7.176446 15.36699 2.730181 3.486404 5.184069 6.124488 7.831362 8.319479 2.075265 1.475608 4.187369 2.638083 6.308683 3.504824a527.670911 527.670911 0 0 0 4.713349 14.942317 214.862579 214.862579 0 0 0 5.967921 13.909801c2.407839 4.906753 5.276167 8.873088 8.652054 11.842723 6.142907 5.091972 11.419074 9.758248 16.132422 14.31503 4.113691 3.947915 6.40999 9.260921 7.000438 16.178471 0.369414 5.552459 0.544399 10.552334 0.544399 15.015995 0 3.911076-0.774643 7.765871-2.296299 11.437493-1.544169 3.705392-4.090155 7.504928-7.613398 11.305487zM840.200904 235.9345H562.328245c-14.121626 0-25.614377 11.492752-25.614377 25.623588 0 14.112416 11.492752 25.605168 25.614377 25.605167h277.872659c14.121626 0 25.605168-11.492752 25.605167-25.605167 0-14.130835-11.483542-25.623587-25.605167-25.623588zM637.252679 494.935346c14.121626 0 25.605168-11.492752 25.605167-25.605168s-11.483542-25.605168-25.605167-25.605168h-74.933643c-14.121626 0-25.605168 11.492752-25.605168 25.605168s11.483542 25.605168 25.605168 25.605168h74.933643zM806.829865 473.093898c-138.336672 0-250.883981 112.547309-250.88398 250.883981 0 138.355091 112.547309 250.9024 250.88398 250.9024s250.883981-112.547309 250.883981-250.9024c0-138.336672-112.547309-250.883981-250.883981-250.883981z m195.237613 250.883981c0 107.658975-87.578638 195.246823-195.237613 195.246823s-195.237613-87.587847-195.237613-195.246823c0-107.640556 87.578638-195.228403 195.237613-195.228403s195.237613 87.587847 195.237613 195.228403z" fill="#515151" p-id="2222"></path><path d="M939.115728 607.759971c-12.295024-8.983605-32.005948-5.885034-40.906666 6.290263L777.664615 778.084171l-79.757508-74.232678c-5.441942-5.03569-12.506848-7.822153-20.310581-7.822153h-0.00921c-8.089235 0.110517-15.560394 3.412726-21.039176 9.29776-5.377474 5.756097-8.162914 13.245675-7.858991 21.048385 0.285502 7.803733 3.596921 15.034415 9.316179 20.36584l103.821577 96.572476c5.460362 5.073552 12.544711 7.877411 19.968798 7.877411 0.89437 0 1.798972-0.055259 2.73939-0.128936 8.328689-0.848321 15.919575-5.184069 20.836561-11.880585L945.4152 648.694265c4.630461-6.308683 6.52153-14.038738 5.331426-21.786189-1.198292-7.729032-5.321192-14.536065-11.630898-19.148105z" fill="#515151" p-id="2223"></path></svg>