<svg t="1557461127710" class="icon" viewBox="0 0 1024 1024" version="1.1" xmlns="http://www.w3.org/2000/svg" p-id="2889" height="64" width="64"><path d="M864 992H179.2c-70.4 0-134.4-57.6-134.4-134.4v-160c0-19.2 12.8-32 32-32s32 12.8 32 32v160c0 38.4 32 70.4 70.4 70.4h684.8c38.4 0 70.4-32 70.4-70.4V147.2c0-38.4-32-70.4-70.4-70.4H179.2c-38.4 0-70.4 32-70.4 70.4v140.8c0 19.2-12.8 32-32 32s-32-12.8-32-32V147.2C44.8 76.8 102.4 12.8 179.2 12.8h684.8c70.4 0 134.4 57.6 134.4 134.4v716.8c-6.4 70.4-64 128-134.4 128z" p-id="2890"></path><path d="M288 582.4H76.8c-12.8 0-25.6-12.8-25.6-25.6s12.8-25.6 25.6-25.6h211.2c12.8 0 25.6 12.8 25.6 25.6s-12.8 25.6-25.6 25.6z" p-id="2891"></path><path d="M102.4 640c-6.4 0-12.8 0-19.2-6.4L25.6 576c-6.4-6.4-6.4-25.6 0-32l57.6-57.6c6.4-6.4 25.6-6.4 32 0s12.8 19.2 6.4 25.6l-44.8 44.8 44.8 44.8c6.4 6.4 6.4 19.2 0 32-6.4 6.4-12.8 6.4-19.2 6.4zM486.4 115.2c-38.4 0-70.4 38.4-70.4 76.8S448 268.8 486.4 268.8c38.4 0 76.8-32 76.8-76.8s-32-76.8-76.8-76.8z m51.2 179.2c-12.8 0-44.8 6.4-64 19.2L339.2 416c-38.4 25.6 0 76.8 32 51.2l89.6-64s57.6 134.4 38.4 192v6.4l-96 256c-12.8 32 12.8 44.8 32 44.8 12.8 0 25.6-6.4 32-25.6l115.2-281.6s19.2 134.4 108.8 134.4h115.2c32 0 32-32 32-32s0-32-32-32h-96c-44.8 0-44.8-70.4-44.8-108.8 0-64-44.8-172.8-44.8-172.8l128 89.6c38.4 25.6 70.4-19.2 32-51.2L640 320c-25.6-19.2-32-19.2-64-19.2 6.4-6.4-12.8-6.4-38.4-6.4z" p-id="2892"></path></svg>