<svg t="1557461155293" class="icon" viewBox="0 0 1048 1024" version="1.1" xmlns="http://www.w3.org/2000/svg" p-id="3646" height="64" width="64"><path d="M240.63154 424.301083l225.968056 225.968056c15.415458 15.227465 35.718744 23.687167 57.337984 23.687167 21.807233 0 42.11052-8.459703 57.337985-23.687167l225.968055-225.968056c17.671379-17.671379 17.671379-46.434368 0-63.917753-8.459703-8.459703-19.927299-13.347531-31.958876-13.34753s-23.499174 4.699835-31.958877 13.34753l-174.081879 174.08188V45.306407C569.243988 20.303286 548.940701 0 523.93758 0s-45.306407 20.303286-45.306407 45.306407v489.158803L304.549293 360.38333c-8.459703-8.459703-19.927299-13.347531-31.958876-13.34753s-23.499174 4.699835-31.958877 13.34753c-8.459703 8.459703-13.159537 19.927299-13.159537 31.958877s4.699835 23.499174 13.159537 31.958876z m618.310263-304.549293c-25.003121 0-45.306407 20.303286-45.306407 45.306407s20.303286 45.306407 45.306407 45.306407c54.33009 0 98.320543 44.178447 98.320543 98.320544v526.569488c0 54.33009-44.178447 98.320543-98.320543 98.320543H188.933358c-54.33009 0-98.320543-44.178447-98.320544-98.320543V308.497154c0-54.33009 44.178447-98.320543 98.320544-98.320543 25.003121 0 45.306407-20.303286 45.306407-45.306407s-20.303286-45.306407-45.306407-45.306407C84.785019 119.75179 0 204.348816 0 308.497154v526.569488c0 104.148339 84.785019 188.933358 188.933358 188.933358H859.129796c104.148339 0 188.933358-84.785019 188.933358-188.933358V308.497154c-0.187993-104.148339-84.973013-188.745364-189.121351-188.745364z m0 0" p-id="3647"></path></svg>