<svg t="1547615424297" class="icon" viewBox="0 0 1024 1024" version="1.1" xmlns="http://www.w3.org/2000/svg" p-id="2468" height="16" width="16"><path d="M1012.608158 1024H0v-31.644005c0-100.944376 109.171817-146.195303 205.369592-185.750309C275.619283 777.493201 348.084054 747.431397 348.084054 707.559951a130.05686 130.05686 0 0 0-28.163164-63.28801 420.232386 420.232386 0 0 1-60.123609-126.57602H253.15204c-49.048208 0-74.996292-65.50309-74.996292-130.3733A113.601978 113.601978 0 0 1 221.508035 284.796044a284.796044 284.796044 0 0 1 569.592089 0 74.046972 74.046972 0 0 1 31.644005 33.859086 168.662546 168.662546 0 0 1 13.290482 68.667491c0 63.28801-25.948084 130.3733-74.996292 130.3733h-6.645241a420.232386 420.232386 0 0 1-60.12361 126.57602 130.05686 130.05686 0 0 0-29.745364 63.28801c0 39.871446 72.464771 69.933251 142.714462 99.045735C903.436341 846.160692 1012.608158 891.411619 1012.608158 992.355995zM72.148331 960.71199h868.311496c-23.733004-40.504326-91.451174-68.667491-158.220025-94.932015-88.603214-37.656366-181.003708-75.945612-181.003708-158.220024a179.421508 179.421508 0 0 1 38.289246-96.830656A362.640297 362.640297 0 0 0 696.168109 479.723115l5.063041-25.315204h53.478368a135.119901 135.119901 0 0 0 15.189122-78.793572c-1.89864-25.631644-9.176761-35.124845-10.758961-36.074166H727.812114V301.883807 296.187886A221.508035 221.508035 0 0 0 284.796044 296.187886v5.695921l1.898641 37.972806H253.15204c-1.89864 0-9.176761 10.126082-11.075402 35.757726A135.119901 135.119901 0 0 0 257.26576 454.407911h53.478369l5.06304 25.315204a362.640297 362.640297 0 0 0 57.275649 131.00618A179.421508 179.421508 0 0 1 411.372064 707.559951c0 82.274413-92.400494 120.563659-181.953028 158.220024-65.81953 26.264524-134.487021 54.427689-157.270705 94.932015z" fill="#54C3F1" p-id="2469"></path></svg>