<svg t="1547548678515" class="icon" viewBox="0 0 1024 1024" version="1.1" xmlns="http://www.w3.org/2000/svg" p-id="3490" height="128" width="128"><path d="M512 0.006C229.233 0.006 0.006 229.233 0.006 512c0 282.766 229.228 511.993 511.994 511.993S1023.993 794.765 1023.993 512C1023.993 229.233 794.766 0.006 512 0.006z m319.607 831.601c-41.53 41.529-89.874 74.128-143.689 96.891-55.686 23.553-114.873 35.495-175.918 35.495s-120.233-11.942-175.918-35.495c-53.816-22.763-102.161-55.361-143.69-96.891-41.53-41.53-74.128-89.874-96.891-143.689C71.948 632.232 60.006 573.045 60.006 512s11.942-120.233 35.495-175.918c22.762-53.816 55.361-102.16 96.891-143.69s89.874-74.128 143.69-96.891C391.767 71.948 450.955 60.006 512 60.006s120.232 11.942 175.918 35.495c53.815 22.763 102.159 55.361 143.689 96.891 41.529 41.53 74.128 89.875 96.891 143.69 23.553 55.685 35.495 114.873 35.495 175.918s-11.942 120.232-35.495 175.918c-22.763 53.815-55.361 102.159-96.891 143.689z" p-id="3491"></path><path d="M749.773 274.226c-15.621-15.621-40.947-15.621-56.568 0L512 455.432 330.795 274.227c-15.621-15.621-40.947-15.621-56.568 0-15.621 15.621-15.621 40.947 0 56.568L455.432 512 274.227 693.204c-15.621 15.621-15.621 40.947 0 56.568 7.811 7.811 18.047 11.716 28.284 11.716s20.474-3.905 28.284-11.716L512 568.568l181.205 181.205c7.811 7.811 18.047 11.716 28.284 11.716s20.474-3.905 28.284-11.716c15.621-15.621 15.621-40.947 0-56.568L568.568 512l181.205-181.206c15.622-15.621 15.622-40.947 0-56.568z" p-id="3492"></path></svg>