<svg t="1547548691945" class="icon" viewBox="0 0 1024 1024" version="1.1" xmlns="http://www.w3.org/2000/svg" p-id="3658" height="128" width="128"><path d="M512 0.006C229.233 0.006 0.006 229.234 0.006 512S229.233 1023.994 512 1023.994c282.766 0 511.994-229.229 511.994-511.994C1023.994 229.234 794.766 0.006 512 0.006z m319.607 831.601c-41.529 41.53-89.874 74.129-143.689 96.892-55.686 23.553-114.873 35.495-175.918 35.495s-120.232-11.942-175.918-35.495c-53.816-22.763-102.16-55.361-143.69-96.892-41.53-41.529-74.128-89.874-96.891-143.689C71.949 632.232 60.006 573.045 60.006 512s11.942-120.232 35.495-175.918c22.762-53.816 55.361-102.16 96.891-143.69s89.874-74.128 143.69-96.891C391.767 71.949 450.955 60.006 512 60.006s120.232 11.942 175.918 35.495c53.815 22.762 102.16 55.361 143.689 96.891 41.53 41.53 74.129 89.875 96.892 143.69 23.553 55.686 35.495 114.873 35.495 175.918s-11.942 120.232-35.495 175.918c-22.763 53.815-55.361 102.16-96.892 143.689z" p-id="3659"></path><path d="M512 734.676c-35.772 0-64.777 29.004-64.777 64.777 0 35.771 29.005 64.777 64.777 64.777 35.773 0 64.778-29.006 64.778-64.777 0-35.773-29.005-64.777-64.778-64.777zM512 164.749c-35.772 0-64.777 29.005-64.777 64.777 0 35.774 0.906 429.1 64.777 429.1 63.872 0 64.778-393.326 64.778-429.1 0-35.772-29.005-64.777-64.778-64.777z" p-id="3660"></path></svg>