<svg t="1547547089068" class="icon" viewBox="0 0 1024 1024" version="1.1" xmlns="http://www.w3.org/2000/svg" p-id="3522" height="32" width="32"><path d="M529.7 385.7c13.2 0 23.6-8 23.6-18.2V228.1c0-10.2-10.3-18.3-23.6-18.3h-16.4c-13.2 0-23.6 8-23.6 18.3v139.3c0 10.2 10.3 18.2 23.6 18.2h16.4zM381.2 442.2c2.9 2.9 6.6 4.4 11.5 4.6 6.2 0 12.8-3 18.1-8.3l11.6-11.6c9.3-9.3 11-22.3 3.7-29.6l-98.5-98.5c-7.2-7.2-20.2-5.6-29.6 3.8l-11.6 11.6c-9.3 9.3-11 22.3-3.7 29.6l98.5 98.4zM375.7 548.3v-16.4c0-13.2-8-23.6-18.3-23.6H218.1c-10.2 0-18.2 10.4-18.2 23.6v16.4c0 13.2 8 23.6 18.2 23.6h139.3c10.2-0.1 18.3-10.4 18.3-23.6zM416.8 639.1c-9.3-9.3-22.3-10.9-29.6-3.8l-98.6 98.5c-7.2 7.2-5.5 20.2 3.8 29.6L304 775c4 4 8.8 6.7 13.7 7.8 1.5 0.3 3 0.5 4.4 0.5 4.5 0 8.5-1.6 11.5-4.5l98.5-98.5c2.9-2.9 4.6-7 4.6-11.4 0-6.2-3-12.8-8.3-18.1l-11.6-11.7zM538.3 685.9h-16.4c-13.2 0-23.6 8-23.6 18.2v139.3c0 10.2 10.3 18.3 23.6 18.3h16.4c13.2 0 23.6-8 23.6-18.3V704.1c-0.1-10.2-10.4-18.2-23.6-18.2zM670.3 629.3c-2.9-2.9-7-4.5-11.5-4.5-6.2 0-12.8 3-18.1 8.3l-11.6 11.6c-9.3 9.3-11 22.3-3.7 29.6l98.5 98.5c3 3 7.1 4.5 11.4 4.5 6 0 12.7-2.8 18.1-8.2l11.6-11.6c9.3-9.3 11-22.3 3.8-29.6l-98.5-98.6zM833.5 499.7H694.1c-10.2 0-18.3 10.4-18.3 23.6v16.4c0 13.2 8 23.6 18.3 23.6h139.3c10.2 0 18.3-10.4 18.3-23.6v-16.4c0-13.2-8-23.6-18.2-23.6zM634.7 432.4c5.4 5.4 12.1 8.2 18.1 8.2 4.4 0 8.4-1.5 11.4-4.5l98.6-98.5c7.2-7.2 5.5-20.2-3.8-29.6l-11.6-11.6c-9.3-9.3-22.3-11-29.6-3.8l-98.5 98.5c-7.2 7.2-5.6 20.2 3.8 29.6l11.6 11.7z" fill="#666666" p-id="3523"></path></svg>